<svg width="445px" height="420px" version="1.1" xmlns="http://www.w3.org/2000/svg" xmlns:xlink="http://www.w3.org/1999/xlink" xml:space="preserve" xmlns:serif="http://www.serif.com/" style="fill-rule:evenodd;clip-rule:evenodd;stroke-linejoin:round;stroke-miterlimit:2;"><g transform="matrix(5,0,0,5,-1665,-805.102)"><g transform="matrix(1,0,0,1,-18,-57.9796)"><path d="M402,278.087l0.018,-0c0.347,6.588 5.807,11.831 12.482,11.831c6.675,0 12.135,-5.243 12.482,-11.831l0.018,-0l0,-52.587c0,-3.587 2.913,-6.5 6.5,-6.5c3.587,0 6.5,2.913 6.5,6.5l0,52.668c0,13.66 -11.09,24.75 -24.75,24.75c-8.062,0 -15.229,-3.863 -19.75,-9.839c-4.521,5.976 -11.688,9.839 -19.75,9.839c-13.66,0 -24.75,-11.09 -24.75,-24.75l0,-52.668c0,-3.587 2.913,-6.5 6.5,-6.5c3.587,0 6.5,2.913 6.5,6.5l0,52.587l0.018,-0c0.347,6.588 5.807,11.831 12.482,11.831c6.675,0 12.135,-5.243 12.482,-11.831l0.018,-0l0,-52.257c0,-3.77 2.913,-6.83 6.5,-6.83c3.587,0 6.5,3.06 6.5,6.83l0,52.257Z" style="fill:white;"/></g></g></svg>