<svg fill="white" version="1.1" viewBox="0 0 1480 1480" xml:space="preserve" xmlns="http://www.w3.org/2000/svg"><g transform="matrix(5,0,0,5,-3360,-1087.4)"><g transform="matrix(6.1232e-17 -1 1 6.1232e-17 455 763.52)"><g transform="matrix(6.1232e-17 1 -1 6.1232e-17 762.5 -134)"><path d="m402 278.09h0.018c0.347 6.588 5.807 11.831 12.482 11.831s12.135-5.243 12.482-11.831h0.018v-52.587c0-3.587 2.913-6.5 6.5-6.5s6.5 2.913 6.5 6.5v52.668c0 13.66-11.09 24.75-24.75 24.75-8.062 0-15.229-3.863-19.75-9.839-4.521 5.976-11.688 9.839-19.75 9.839-13.66 0-24.75-11.09-24.75-24.75v-52.668c0-3.587 2.913-6.5 6.5-6.5s6.5 2.913 6.5 6.5v52.587h0.018c0.347 6.588 5.807 11.831 12.482 11.831s12.135-5.243 12.482-11.831h0.018v-52.257c0-3.77 2.913-6.83 6.5-6.83s6.5 3.06 6.5 6.83v52.257z"/></g><g transform="matrix(6.1232e-17 1 -1 6.1232e-17 762.5 -134)"><path d="m507.5 386.67h0.018c0.347 6.589 5.807 11.832 12.482 11.832s12.135-5.243 12.482-11.832h0.018v-52.586c0-3.588 2.913-6.5 6.5-6.5s6.5 2.912 6.5 6.5v52.668c0 13.66-11.09 24.75-24.75 24.75-8.062 0-15.229-3.863-19.75-9.839-4.521 5.976-11.688 9.839-19.75 9.839-13.66 0-24.75-11.09-24.75-24.75v-52.668c0-3.588 2.913-6.5 6.5-6.5s6.5 2.912 6.5 6.5v52.586h0.018c0.347 6.589 5.807 11.832 12.482 11.832s12.135-5.243 12.482-11.832h0.018v-52.256c0-3.77 2.913-6.83 6.5-6.83s6.5 3.06 6.5 6.83v52.256z"/></g><g transform="matrix(6.1232e-17 1 -1 6.1232e-17 762.5 -134)"><path d="m469.42 260.96c-5.976-4.521-9.839-11.688-9.839-19.75-0-13.66 11.09-24.75 24.75-24.75h52.668c3.587 0 6.5 2.913 6.5 6.5 0 3.588-2.913 6.5-6.5 6.5h-52.587v0.018c-6.588 0.348-11.831 5.807-11.831 12.482s5.243 12.135 11.831 12.482v0.018h52.257c3.77 0 6.83 2.913 6.83 6.5 0 3.588-3.06 6.5-6.83 6.5h-52.257v0.018c-6.588 0.348-11.831 5.807-11.831 12.482s5.243 12.135 11.831 12.482v0.018h52.587c3.587 0 6.5 2.913 6.5 6.5 0 3.588-2.913 6.5-6.5 6.5h-52.668c-13.66 0-24.75-11.09-24.75-24.75-0-8.062 3.863-15.229 9.839-19.75z"/></g><g transform="matrix(6.1232e-17 1 -1 6.1232e-17 762.5 -134)"><path d="m564.11 328.42c0.296-3.313 3.083-5.915 6.474-5.915h51.668c13.66 0 24.75 11.09 24.75 24.75-0 0.167-2e-3 0.333-5e-3 0.5 3e-3 0.167 5e-3 0.333 5e-3 0.5-0 13.66-11.09 24.75-24.75 24.75h-23.668c-3.588 0-6.5-2.913-6.5-6.5s2.912-6.5 6.5-6.5h23.586v-0.018c6.507-0.343 11.701-5.672 11.83-12.232-0.129-6.56-5.323-11.889-11.83-12.232v-0.018h-45.086v69.17c-0 3.77-2.913 6.83-6.5 6.83-3.588 0-6.5-3.06-6.5-6.83v-76.257l0.026 2e-3z"/></g><g transform="matrix(6.1232e-17 1 -1 6.1232e-17 762.5 -134)"><path d="m564.11 222.38c0.296-3.314 3.083-5.916 6.474-5.916h51.668c13.66 0 24.75 11.09 24.75 24.75-0 8.062-3.863 15.229-9.839 19.75 5.976 4.521 9.839 11.688 9.839 19.75-0 13.66-11.09 24.75-24.75 24.75h-16.668c-3.588 0-6.5-2.912-6.5-6.5-0-3.587 2.912-6.5 6.5-6.5h16.586v-0.018c6.589-0.347 11.832-5.807 11.832-12.482s-5.243-12.134-11.832-12.482v-0.018h-30.256c-3.77 0-6.83-2.912-6.83-6.5-0-3.587 3.06-6.5 6.83-6.5h30.256v-0.018c6.589-0.347 11.832-5.807 11.832-12.482s-5.243-12.134-11.832-12.482v-0.018h-45.086v69.17c-0 3.77-2.913 6.83-6.5 6.83-3.588 0-6.5-3.06-6.5-6.83v-76.256l0.026 2e-3z"/></g><g transform="matrix(6.1232e-17 1 -1 6.1232e-17 762.5 -134)"><path d="m412.09 360.5v-0.018c6.588-0.347 11.831-5.807 11.831-12.482s-5.243-12.135-11.831-12.482v-0.018h-52.587c-3.587 0-6.5-2.913-6.5-6.5s2.913-6.5 6.5-6.5h52.668c13.66 0 24.75 11.09 24.75 24.75 0 8.062-3.863 15.229-9.839 19.75 5.976 4.521 9.839 11.688 9.839 19.75 0 13.66-11.09 24.75-24.75 24.75h-52.668c-3.587 0-6.5-2.913-6.5-6.5s2.913-6.5 6.5-6.5h52.587v-0.018c6.588-0.347 11.831-5.807 11.831-12.482s-5.243-12.135-11.831-12.482v-0.018h-52.257c-3.77 0-6.83-2.913-6.83-6.5s3.06-6.5 6.83-6.5h52.257z"/></g></g></g></svg>
